<!DOCTYPE svg PUBLIC "-//W3C//DTD SVG 20010904//EN" "http://www.w3.org/TR/2001/REC-SVG-20010904/DTD/svg10.dtd">
<svg version="1.0" xmlns="http://www.w3.org/2000/svg" width="93px" height="134px" viewBox="0 0 930 1340" preserveAspectRatio="xMidYMid meet">
<g id="layer101" fill="#8d4549" stroke="none">
 <path d="M0 670 l0 -670 465 0 465 0 0 670 0 670 -465 0 -465 0 0 -670z"/>
 </g>
<g id="layer102" fill="#d14e53" stroke="none">
 <path d="M0 670 l0 -670 465 0 465 0 0 670 0 670 -465 0 -465 0 0 -670z m630 137 c132 -77 176 -108 178 -124 3 -18 -13 -31 -95 -79 -54 -31 -134 -78 -179 -105 l-81 -47 -163 94 c-191 110 -192 111 -188 141 2 18 37 43 173 122 94 54 172 99 175 99 3 1 84 -45 180 -101z"/>
 </g>
<g id="layer103" fill="#ab7477" stroke="none">
 <path d="M0 670 l0 -670 465 0 465 0 0 670 0 670 -465 0 -465 0 0 -670z m565 544 c22 -13 54 -31 70 -39 17 -9 44 -24 60 -35 17 -11 41 -25 55 -32 62 -29 60 -23 60 -244 l0 -203 -97 -57 c-54 -32 -134 -78 -179 -105 l-81 -47 -163 94 c-89 51 -168 99 -176 105 -11 9 -14 53 -14 217 0 225 -3 214 65 247 17 8 44 24 60 35 17 10 44 26 60 35 17 8 48 26 70 39 22 14 53 31 69 38 32 15 41 12 141 -48z"/>
 </g>
<g id="layer104" fill="#dc7679" stroke="none">
 <path d="M0 670 l0 -670 465 0 465 0 0 670 0 670 -465 0 -465 0 0 -670z m565 544 c22 -13 54 -31 70 -39 17 -9 44 -24 60 -35 17 -11 41 -25 55 -32 62 -29 60 -23 60 -244 l0 -203 -97 -57 c-54 -32 -134 -78 -179 -105 l-81 -47 -178 103 -179 103 3 208 c3 227 0 217 66 249 17 8 44 24 60 35 17 10 44 26 60 35 17 8 48 26 70 39 22 14 53 31 69 38 32 15 41 12 141 -48z"/>
 </g>
<g id="layer105" fill="#abe0e2" stroke="none">
 <path d="M0 670 l0 -670 465 0 465 0 0 670 0 670 -465 0 -465 0 0 -670z m634 509 l176 -102 0 -208 0 -208 -97 -57 c-54 -32 -134 -78 -179 -105 l-81 -47 -179 103 -179 103 -3 209 -2 208 177 103 c98 56 181 102 185 102 3 0 85 -46 182 -101z"/>
 </g>
<g id="layer106" fill="#c8ebec" stroke="none">
 <path d="M0 670 l0 -670 465 0 465 0 0 670 0 670 -465 0 -465 0 0 -670z m634 509 l176 -102 -2 -396 -3 -396 -177 -102 -176 -101 -175 100 -174 100 -6 276 c-4 152 -7 331 -7 397 l0 121 177 102 c98 56 181 102 185 102 3 0 85 -46 182 -101z"/>
 </g>
<g id="layer107" fill="#ffffff" stroke="none">
 <path d="M0 670 l0 -670 465 0 465 0 0 670 0 670 -465 0 -465 0 0 -670z m634 509 l176 -102 0 -397 0 -397 -162 -93 c-90 -52 -170 -98 -179 -104 -13 -7 -57 14 -198 94 l-181 104 0 396 0 396 177 102 c98 56 181 102 185 102 3 0 85 -46 182 -101z"/>
 </g>

</svg>