<!DOCTYPE svg PUBLIC "-//W3C//DTD SVG 20010904//EN" "http://www.w3.org/TR/2001/REC-SVG-20010904/DTD/svg10.dtd">
<svg version="1.0" xmlns="http://www.w3.org/2000/svg" width="400px" height="300px" viewBox="0 0 4000 3000" preserveAspectRatio="xMidYMid meet">
<g id="layer101" fill="#331110" stroke="none">
 <path d="M0 1500 l0 -1500 2000 0 2000 0 0 1500 0 1500 -2000 0 -2000 0 0 -1500z"/>
 </g>
<g id="layer102" fill="#092d2d" stroke="none">
 <path d="M0 1500 l0 -1500 2000 0 2000 0 0 1500 0 1500 -2000 0 -2000 0 0 -1500z m1342 838 c98 -57 178 -108 178 -114 0 -5 -6 -17 -12 -26 -17 -21 -340 -209 -353 -206 -6 2 -88 48 -183 103 -136 79 -172 104 -172 120 0 17 37 43 173 122 94 56 176 101 181 102 5 1 89 -45 188 -101z"/>
 </g>
<g id="layer103" fill="#1f3e43" stroke="none">
 <path d="M0 1500 l0 -1500 2000 0 2000 0 0 1500 0 1500 -2000 0 -2000 0 0 -1500z m1342 838 c98 -57 178 -108 178 -114 0 -5 -6 -17 -12 -26 -17 -21 -340 -209 -353 -206 -6 2 -88 48 -183 103 -136 79 -172 104 -172 120 0 17 37 43 173 122 94 56 176 101 181 102 5 1 89 -45 188 -101z m-77 -1393 c22 -14 49 -30 60 -35 11 -5 38 -21 60 -35 22 -14 51 -30 65 -36 32 -13 70 -49 70 -65 0 -13 -341 -214 -362 -214 -7 0 -89 45 -183 99 -144 84 -170 102 -170 122 0 17 11 30 40 46 85 46 155 87 200 114 17 11 44 26 62 34 17 8 34 19 37 24 6 9 50 -10 121 -54z"/>
 </g>
<g id="layer104" fill="#393734" stroke="none">
 <path d="M0 1500 l0 -1500 2000 0 2000 0 0 1500 0 1500 -2000 0 -2000 0 0 -1500z m1342 838 c98 -57 178 -108 178 -114 0 -5 -6 -17 -12 -26 -17 -21 -340 -209 -353 -206 -6 2 -88 48 -183 103 -136 79 -172 104 -172 120 0 17 37 43 173 122 94 56 176 101 181 102 5 1 89 -45 188 -101z m745 60 c41 -24 82 -47 92 -53 9 -5 56 -32 104 -59 66 -38 87 -55 87 -70 0 -17 -39 -43 -180 -124 l-180 -104 -180 103 c-144 83 -180 107 -180 124 0 16 21 33 87 71 48 27 95 54 105 59 56 33 164 95 167 95 2 0 37 -19 78 -42z m-875 -1419 c76 -45 101 -60 208 -121 136 -78 136 -76 -75 -199 -93 -54 -177 -98 -185 -98 -8 0 -91 43 -185 97 -211 121 -211 121 -80 199 50 29 99 58 110 63 11 5 49 28 85 49 36 22 66 40 67 40 1 1 26 -13 55 -30z"/>
 </g>
<g id="layer105" fill="#8d4549" stroke="none">
 <path d="M0 1500 l0 -1500 2000 0 2000 0 0 1500 0 1500 -2000 0 -2000 0 0 -1500z m1390 1184 l125 -72 3 -199 c2 -149 -1 -203 -10 -215 -16 -21 -340 -209 -353 -206 -6 2 -88 48 -183 103 l-172 100 2 209 3 210 175 102 175 101 55 -30 c30 -17 111 -63 180 -103z m802 -346 c139 -80 178 -107 178 -123 0 -15 -40 -43 -180 -123 l-180 -104 -180 103 c-142 82 -180 108 -180 124 0 16 38 42 178 123 97 56 179 102 182 102 2 0 85 -46 182 -102z m852 1 l176 -102 -2 -210 -3 -209 -170 -99 c-93 -54 -176 -99 -183 -99 -7 0 -91 45 -187 101 l-175 101 0 207 0 207 177 102 c98 56 181 102 184 102 4 0 86 -46 183 -101z m-1832 -1360 c76 -45 101 -60 208 -121 l95 -54 3 -207 2 -206 -37 -24 c-21 -13 -102 -61 -181 -106 l-143 -82 -180 103 -179 103 2 209 3 210 90 53 c50 29 99 58 110 63 11 5 49 28 85 49 36 22 66 40 67 40 1 1 26 -13 55 -30z"/>
 </g>
<g id="layer106" fill="#d14e53" stroke="none">
 <path d="M0 1500 l0 -1500 2000 0 2000 0 0 1500 0 1500 -2000 0 -2000 0 0 -1500z m1390 1184 l125 -72 3 -210 2 -210 -47 -25 c-27 -13 -106 -59 -178 -101 -71 -42 -135 -75 -140 -74 -6 2 -88 48 -183 103 l-172 100 2 209 3 210 175 102 175 101 55 -30 c30 -17 111 -63 180 -103z m805 -345 c141 -82 175 -105 175 -122 0 -18 -35 -42 -180 -125 l-180 -104 -180 103 c-147 85 -180 107 -180 125 0 18 32 41 173 122 94 56 178 101 184 101 7 1 91 -44 188 -100z m849 0 l176 -102 -2 -210 -3 -209 -170 -99 c-93 -54 -176 -99 -183 -99 -7 0 -91 45 -187 101 l-175 101 0 207 0 207 177 102 c98 56 181 102 184 102 4 0 86 -46 183 -101z m-1832 -1360 c76 -45 101 -60 208 -121 l95 -54 3 -207 2 -206 -37 -24 c-21 -13 -102 -61 -181 -106 l-143 -82 -180 103 -179 103 2 209 3 210 90 53 c50 29 99 58 110 63 11 5 49 28 85 49 36 22 66 40 67 40 1 1 26 -13 55 -30z m1828 -72 c132 -77 176 -108 178 -124 3 -18 -13 -31 -95 -79 -54 -31 -134 -78 -179 -105 l-81 -47 -179 103 c-149 86 -179 107 -179 126 0 19 29 40 175 125 96 56 177 102 180 102 3 1 84 -45 180 -101z"/>
 </g>
<g id="layer107" fill="#19b3bb" stroke="none">
 <path d="M0 1500 l0 -1500 2000 0 2000 0 0 1500 0 1500 -2000 0 -2000 0 0 -1500z m1390 1184 l125 -72 0 -397 0 -397 -178 -103 -178 -102 -177 101 -177 102 0 399 0 399 175 102 175 101 55 -30 c30 -17 111 -63 180 -103z m737 67 c65 -38 145 -84 178 -103 l60 -34 3 -210 2 -209 -180 -103 -180 -104 -180 103 -180 103 2 210 3 210 175 102 c96 56 176 102 177 103 1 1 55 -30 120 -68z m917 -412 l176 -102 -2 -210 -3 -209 -170 -99 c-93 -54 -176 -99 -183 -99 -7 0 -91 45 -187 101 l-175 101 0 207 0 207 177 102 c98 56 181 102 184 102 4 0 86 -46 183 -101z m4 -1063 l172 -98 0 -209 0 -208 -97 -57 c-54 -32 -134 -78 -179 -105 l-81 -47 -179 103 -179 103 -3 209 -2 210 47 26 c27 14 107 60 178 101 72 42 135 75 140 74 6 -2 88 -47 183 -102z m-1836 -297 c76 -45 101 -60 208 -121 l95 -54 3 -207 2 -206 -37 -24 c-21 -13 -102 -61 -181 -106 l-143 -82 -180 103 -179 103 2 209 3 210 90 53 c50 29 99 58 110 63 11 5 49 28 85 49 36 22 66 40 67 40 1 1 26 -13 55 -30z"/>
 </g>
<g id="layer108" fill="#24cbd3" stroke="none">
 <path d="M0 1500 l0 -1500 2000 0 2000 0 0 1500 0 1500 -2000 0 -2000 0 0 -1500z m1390 1184 l125 -72 0 -397 0 -397 -178 -103 -178 -102 -177 101 -177 102 0 399 0 399 175 102 175 101 55 -30 c30 -17 111 -63 180 -103z m737 67 c65 -38 145 -84 178 -103 l60 -34 3 -208 c3 -230 6 -217 -63 -251 -16 -8 -48 -26 -70 -40 -22 -13 -49 -29 -60 -34 -11 -6 -53 -29 -93 -51 l-72 -40 -38 20 c-20 10 -50 26 -67 35 -16 9 -42 23 -57 33 -14 9 -65 39 -112 66 l-86 50 2 210 3 210 175 102 c96 56 176 102 177 103 1 1 55 -30 120 -68z m917 -412 l176 -102 -2 -210 -3 -209 -170 -99 c-93 -54 -176 -99 -183 -99 -7 0 -91 45 -187 101 l-175 101 0 207 0 207 177 102 c98 56 181 102 184 102 4 0 86 -46 183 -101z m4 -1063 l172 -98 0 -209 0 -208 -97 -57 c-54 -32 -134 -78 -179 -105 l-81 -47 -179 103 -179 103 -3 209 -2 210 47 26 c27 14 107 60 178 101 72 42 135 75 140 74 6 -2 88 -47 183 -102z m-1853 -286 c81 -46 112 -64 140 -81 17 -11 44 -26 60 -34 32 -16 53 -29 97 -58 l28 -18 0 -205 0 -204 -37 -23 c-21 -13 -102 -61 -181 -106 l-143 -82 -180 103 -179 103 0 212 0 213 33 15 c17 8 50 26 72 39 22 13 51 31 65 38 14 8 43 25 65 38 22 13 52 30 67 37 15 8 30 18 33 24 9 13 20 11 60 -11z m991 -84 c149 -86 179 -107 179 -126 0 -19 -29 -39 -170 -121 -93 -54 -177 -99 -185 -99 -8 0 -91 45 -185 99 -145 83 -170 101 -170 122 0 20 26 39 175 125 96 56 176 102 176 103 1 1 82 -46 180 -103z"/>
 </g>
<g id="layer109" fill="#abe0e2" stroke="none">
 <path d="M0 1500 l0 -1500 2000 0 2000 0 0 1500 0 1500 -2000 0 -2000 0 0 -1500z m1390 1184 l125 -72 0 -397 0 -397 -178 -103 -178 -102 -177 101 -177 102 0 399 0 399 175 102 175 101 55 -30 c30 -17 111 -63 180 -103z m737 67 c65 -38 145 -84 178 -103 l60 -34 0 -398 0 -398 -170 -99 c-93 -54 -177 -98 -185 -98 -8 0 -91 44 -185 98 l-170 99 0 398 0 398 175 102 c96 56 176 102 177 103 1 1 55 -30 120 -68z m917 -412 l176 -102 -2 -210 -3 -209 -170 -99 c-93 -54 -176 -99 -183 -99 -7 0 -91 45 -187 101 l-175 101 0 207 0 207 177 102 c98 56 181 102 184 102 4 0 86 -46 183 -101z m-1695 -1065 l170 -99 1 -392 0 -393 -37 -23 c-21 -13 -102 -61 -181 -106 l-143 -82 -180 103 -179 103 0 396 0 396 173 101 c94 55 179 99 189 97 9 -1 93 -47 187 -101z m1699 2 l172 -98 0 -209 0 -208 -97 -57 c-54 -32 -134 -78 -179 -105 l-81 -47 -179 103 -179 103 -3 209 -2 210 47 26 c27 14 107 60 178 101 72 42 135 75 140 74 6 -2 88 -47 183 -102z m-862 -370 l179 -103 3 -209 2 -209 -180 -104 -181 -103 -72 42 c-40 23 -120 69 -180 103 l-107 61 2 210 3 210 175 102 c96 56 176 102 176 103 1 1 82 -46 180 -103z"/>
 </g>
<g id="layer110" fill="#ffffff" stroke="none">
 <path d="M0 1500 l0 -1500 2000 0 2000 0 0 1500 0 1500 -2000 0 -2000 0 0 -1500z m1390 1184 l125 -72 0 -397 0 -397 -178 -103 -178 -102 -177 101 -177 102 0 399 0 399 175 102 175 101 55 -30 c30 -17 111 -63 180 -103z m737 67 c65 -38 145 -84 178 -103 l60 -34 0 -399 0 -399 -100 -58 c-55 -32 -107 -61 -115 -65 -7 -4 -42 -24 -77 -45 l-63 -38 -63 38 c-35 21 -70 41 -77 45 -8 4 -60 33 -115 65 l-100 58 0 399 0 399 175 102 c96 56 176 102 177 103 1 1 55 -30 120 -68z m1088 -535 l0 -398 -170 -99 c-93 -54 -176 -99 -183 -99 -7 0 -91 45 -187 101 l-175 101 0 393 0 394 181 104 180 105 177 -102 177 -102 0 -398z m-1968 -882 c43 -26 93 -55 111 -65 35 -21 79 -46 129 -75 l33 -19 0 -392 0 -393 -37 -23 c-21 -13 -102 -61 -181 -106 l-143 -82 -180 103 -179 103 0 397 0 396 173 100 c94 56 177 101 184 101 6 1 47 -20 90 -45z m955 -62 l168 -97 0 -395 0 -396 -62 -36 c-35 -20 -79 -45 -98 -56 -19 -11 -72 -41 -118 -66 l-82 -47 -77 43 c-42 24 -88 50 -102 58 -15 8 -61 35 -104 59 l-77 45 0 396 0 396 178 102 c101 59 183 100 192 97 8 -4 90 -50 182 -103z m846 4 l172 -98 0 -397 0 -397 -179 -103 -180 -103 -180 104 -181 103 0 396 0 396 48 26 c26 14 106 60 177 101 72 42 135 75 140 74 6 -2 88 -47 183 -102z"/>
 </g>

</svg>